{
  "accessors": [
    {
      "bufferView": 2,
      "componentType": 5126,
      "count": 4500,
      "max": [
        10.773942947387695,
        20.400402069091797,
        10.721168518066406
      ],
      "min": [
        -10.70648193359375,
        -1.1305828094482422,
        -10.721168518066406
      ],
      "type": "VEC3"
    },
    {
      "bufferView": 2,
      "byteOffset": 54000,
      "componentType": 5126,
      "count": 4500,
      "max": [
        0.9999715685844421,
        0.999990701675415,
        1.0
      ],
      "min": [
        -0.9999949336051941,
        -0.9999906420707703,
        -1.0
      ],
      "type": "VEC3"
    },
    {
      "bufferView": 3,
      "componentType": 5126,
      "count": 4500,
      "max": [
        0.972661554813385,
        1.0,
        1.0,
        1.0
      ],
      "min": [
        -0.8869796991348267,
        -1.0,
        -1.0,
        -1.0
      ],
      "type": "VEC4"
    },
    {
      "bufferView": 1,
      "componentType": 5126,
      "count": 4500,
      "max": [
        1.0,
        0.8884621858596802
      ],
      "min": [
        0.0,
        -2.9802322387695313e-08
      ],
      "type": "VEC2"
    },
    {
      "bufferView": 1,
      "byteOffset": 36000,
      "componentType": 5126,
      "count": 4500,
      "max": [
        1.0,
        0.8884621858596802
      ],
      "min": [
        0.0,
        -2.9802322387695313e-08
      ],
      "type": "VEC2"
    },
    {
      "bufferView": 0,
      "componentType": 5125,
      "count": 24888,
      "type": "SCALAR"
    }
  ],
  "asset": {
    "extras": {
      "author": "Paolo Quijano (https://sketchfab.com/PQuijano)",
      "license": "CC-BY-4.0 (http://creativecommons.org/licenses/by/4.0/)",
      "source": "https://sketchfab.com/3d-models/bowling-ball-storm-hy-road-pearl-10a4ea0579d54a73965a308469bbb973",
      "title": "Bowling Ball Storm Hy-Road Pearl"
    },
    "generator": "Sketchfab-12.66.0",
    "version": "2.0"
  },
  "bufferViews": [
    {
      "buffer": 0,
      "byteLength": 99552,
      "name": "floatBufferViews",
      "target": 34963
    },
    {
      "buffer": 0,
      "byteLength": 72000,
      "byteOffset": 99552,
      "byteStride": 8,
      "name": "floatBufferViews",
      "target": 34962
    },
    {
      "buffer": 0,
      "byteLength": 108000,
      "byteOffset": 171552,
      "byteStride": 12,
      "name": "floatBufferViews",
      "target": 34962
    },
    {
      "buffer": 0,
      "byteLength": 72000,
      "byteOffset": 279552,
      "byteStride": 16,
      "name": "floatBufferViews",
      "target": 34962
    }
  ],
  "buffers": [
    {
      "byteLength": 351552,
      "uri": "scene.bin"
    }
  ],
  "images": [
    {
      "uri": "textures/StingrayPBS1_baseColor.png"
    },
    {
      "uri": "textures/StingrayPBS1_metallicRoughness.png"
    },
    {
      "uri": "textures/StingrayPBS1_normal.png"
    }
  ],
  "materials": [
    {
      "doubleSided": true,
      "name": "StingrayPBS1",
      "normalTexture": {
        "index": 2
      },
      "pbrMetallicRoughness": {
        "baseColorTexture": {
          "index": 0
        },
        "metallicFactor": 0.0,
        "metallicRoughnessTexture": {
          "index": 1
        }
      }
    }
  ],
  "meshes": [
    {
      "name": "Bowling_Ball_StingrayPBS1_0",
      "primitives": [
        {
          "attributes": {
            "NORMAL": 1,
            "POSITION": 0,
            "TANGENT": 2,
            "TEXCOORD_0": 3,
            "TEXCOORD_1": 4
          },
          "indices": 5,
          "material": 0,
          "mode": 4
        }
      ]
    }
  ],
  "nodes": [
    {
      "children": [
        1
      ],
      "matrix": [
        1.0,
        0.0,
        0.0,
        0.0,
        0.0,
        2.220446049250313e-16,
        -1.0,
        0.0,
        0.0,
        1.0,
        2.220446049250313e-16,
        0.0,
        0.0,
        0.0,
        0.0,
        1.0
      ],
      "name": "Sketchfab_model"
    },
    {
      "children": [
        2
      ],
      "matrix": [
        1.0,
        0.0,
        0.0,
        0.0,
        0.0,
        0.0,
        1.0,
        0.0,
        0.0,
        -1.0,
        0.0,
        0.0,
        0.0,
        0.0,
        0.0,
        1.0
      ],
      "name": "079d3055b4744934969fff2a42b0c97b.fbx"
    },
    {
      "children": [
        3
      ],
      "name": "RootNode"
    },
    {
      "children": [
        4
      ],
      "matrix": [
        0.3937007784843445,
        0.0,
        0.0,
        0.0,
        0.0,
        0.3937007784843445,
        0.0,
        0.0,
        0.0,
        0.0,
        0.3937007784843445,
        0.0,
        0.0,
        -8.881784197001252e-16,
        -9.4039548065783e-38,
        1.0
      ],
      "name": "Bowling_Ball"
    },
    {
      "mesh": 0,
      "name": "Bowling_Ball_StingrayPBS1_0"
    }
  ],
  "samplers": [
    {
      "magFilter": 9729,
      "minFilter": 9987,
      "wrapS": 10497,
      "wrapT": 10497
    }
  ],
  "scene": 0,
  "scenes": [
    {
      "name": "Sketchfab_Scene",
      "nodes": [
        0
      ]
    }
  ],
  "textures": [
    {
      "sampler": 0,
      "source": 0
    },
    {
      "sampler": 0,
      "source": 1
    },
    {
      "sampler": 0,
      "source": 2
    }
  ]
}
