{
  "accessors": [
    {
      "bufferView": 1,
      "componentType": 5126,
      "count": 902,
      "max": [
        0.06159300357103348,
        0.06159299984574318,
        0.3825480043888092
      ],
      "min": [
        -0.06159299984574318,
        -0.06159299984574318,
        -7.517472840845585e-05
      ],
      "type": "VEC3"
    },
    {
      "bufferView": 1,
      "byteOffset": 10824,
      "componentType": 5126,
      "count": 902,
      "max": [
        0.9999997615814209,
        0.9999997615814209,
        1.0
      ],
      "min": [
        -0.9999997615814209,
        -0.9999997615814209,
        -1.0
      ],
      "type": "VEC3"
    },
    {
      "bufferView": 0,
      "componentType": 5125,
      "count": 6444,
      "type": "SCALAR"
    },
    {
      "bufferView": 1,
      "byteOffset": 21648,
      "componentType": 5126,
      "count": 144,
      "max": [
        0.028900759294629097,
        0.02890075370669365,
        0.28360703587532043
      ],
      "min": [
        -0.028900757431983948,
        -0.0289007518440485,
        0.2289411723613739
      ],
      "type": "VEC3"
    },
    {
      "bufferView": 1,
      "byteOffset": 23376,
      "componentType": 5126,
      "count": 144,
      "max": [
        0.9989291429519653,
        0.9989405274391174,
        0.10611721128225327
      ],
      "min": [
        -0.9989291429519653,
        -0.9989405274391174,
        -0.314563125371933
      ],
      "type": "VEC3"
    },
    {
      "bufferView": 0,
      "byteOffset": 25776,
      "componentType": 5125,
      "count": 576,
      "type": "SCALAR"
    }
  ],
  "asset": {
    "extras": {
      "author": "A_dub (https://sketchfab.com/A_dub)",
      "license": "CC-BY-4.0 (http://creativecommons.org/licenses/by/4.0/)",
      "source": "https://sketchfab.com/3d-models/bowlingpin-320d74038d7d49fba699d5711202141b",
      "title": "BowlingPin"
    },
    "generator": "Sketchfab-12.67.0",
    "version": "2.0"
  },
  "bufferViews": [
    {
      "buffer": 0,
      "byteLength": 28080,
      "name": "floatBufferViews",
      "target": 34963
    },
    {
      "buffer": 0,
      "byteLength": 25104,
      "byteOffset": 28080,
      "byteStride": 12,
      "name": "floatBufferViews",
      "target": 34962
    }
  ],
  "buffers": [
    {
      "byteLength": 53184,
      "uri": "scene.bin"
    }
  ],
  "materials": [
    {
      "doubleSided": true,
      "name": "material",
      "pbrMetallicRoughness": {
        "baseColorFactor": [
          0.8,
          0.8,
          0.8,
          1.0
        ],
        "metallicFactor": 0.0,
        "roughnessFactor": 0.1
      }
    },
    {
      "doubleSided": true,
      "name": "Pin_Stripes",
      "pbrMetallicRoughness": {
        "baseColorFactor": [
          0.7999999999999999,
          0.02731209999999997,
          0.03797039999999997,
          1.0
        ],
        "metallicFactor": 0.0,
        "roughnessFactor": 0.9
      }
    }
  ],
  "meshes": [
    {
      "name": "Bowling Pin_Pin_0",
      "primitives": [
        {
          "attributes": {
            "NORMAL": 1,
            "POSITION": 0
          },
          "indices": 2,
          "material": 0,
          "mode": 4
        }
      ]
    },
    {
      "name": "Bowling Pin_Pin Stripes_0",
      "primitives": [
        {
          "attributes": {
            "NORMAL": 4,
            "POSITION": 3
          },
          "indices": 5,
          "material": 1,
          "mode": 4
        }
      ]
    }
  ],
  "nodes": [
    {
      "children": [
        1
      ],
      "matrix": [
        1.0,
        0.0,
        0.0,
        0.0,
        0.0,
        2.220446049250313e-16,
        -1.0,
        0.0,
        0.0,
        1.0,
        2.220446049250313e-16,
        0.0,
        0.0,
        0.0,
        0.0,
        1.0
      ],
      "name": "Sketchfab_model"
    },
    {
      "children": [
        2
      ],
      "matrix": [
        1.0,
        0.0,
        0.0,
        0.0,
        0.0,
        0.0,
        1.0,
        0.0,
        0.0,
        -1.0,
        0.0,
        0.0,
        0.0,
        0.0,
        0.0,
        1.0
      ],
      "name": "b9cbc63c9dda498587f037d7e9e9d3ab.fbx"
    },
    {
      "children": [
        3
      ],
      "name": "RootNode"
    },
    {
      "children": [
        4,
        5
      ],
      "matrix": [
        100.0,
        0.0,
        0.0,
        0.0,
        0.0,
        -1.629206793918314e-05,
        -99.99999999999868,
        0.0,
        0.0,
        99.99999999999868,
        -1.629206793918314e-05,
        0.0,
        0.0,
        0.0,
        0.0,
        1.0
      ],
      "name": "Bowling Pin"
    },
    {
      "mesh": 0,
      "name": "Bowling Pin_Pin_0"
    },
    {
      "mesh": 1,
      "name": "Bowling Pin_Pin Stripes_0"
    }
  ],
  "scene": 0,
  "scenes": [
    {
      "name": "Sketchfab_Scene",
      "nodes": [
        0
      ]
    }
  ]
}
